<svg xmlns="http://www.w3.org/2000/svg" width="217.626" height="46" viewBox="0 0 217.626 46">
  <path id="Path_1" data-name="Path 1" d="M5.842,0H22.08V-3.68H5.842Zm0-28.52H22.08V-32.2H5.842Zm0,12.88H21.16v-3.68H5.842ZM3.68-32.2V0H7.59V-32.2ZM57.73-13.34a11.274,11.274,0,0,0-.805-4.485A6.114,6.114,0,0,0,54.6-20.654a6.714,6.714,0,0,0-3.68-.966,7.214,7.214,0,0,0-3.772.989,7.739,7.739,0,0,0-2.76,2.967,5.972,5.972,0,0,0-2.323-2.921,6.793,6.793,0,0,0-3.8-1.035,6.509,6.509,0,0,0-3.427.874,6.744,6.744,0,0,0-2.415,2.668V-21.16H28.75V0h3.68V-12.88a6.313,6.313,0,0,1,.6-2.852,4.16,4.16,0,0,1,1.7-1.817,5.264,5.264,0,0,1,2.622-.621,3.612,3.612,0,0,1,3.059,1.288,6.568,6.568,0,0,1,.989,4V0h3.68V-12.88a6.313,6.313,0,0,1,.6-2.852,4.16,4.16,0,0,1,1.7-1.817A5.264,5.264,0,0,1,50-18.17a3.612,3.612,0,0,1,3.059,1.288,6.568,6.568,0,0,1,.989,4V0h3.68Zm6.9-16.56a2.427,2.427,0,0,0,.759,1.771,2.427,2.427,0,0,0,1.771.759,2.4,2.4,0,0,0,1.794-.759A2.464,2.464,0,0,0,69.69-29.9a2.441,2.441,0,0,0-.736-1.794,2.441,2.441,0,0,0-1.794-.736,2.464,2.464,0,0,0-1.771.736A2.4,2.4,0,0,0,64.63-29.9Zm.69,8.74V0H69V-21.16ZM76.59-35.88V0h3.68V-35.88Zm27.37,14.72H99.82L93.288-4.784l1.518.184L88.09-21.16H83.72l8.1,18.17-5.8,13.11h4.14ZM123.6-15.64h22.08v-3.68H123.6ZM143.06-32.2V0h3.91V-32.2Zm-21.62,0V0h3.91V-32.2Zm30.82,21.62A11.144,11.144,0,0,0,153.709-4.9a10.525,10.525,0,0,0,3.933,3.933A10.977,10.977,0,0,0,163.208.46,10.942,10.942,0,0,0,168.8-.966a10.577,10.577,0,0,0,3.91-3.933,11.144,11.144,0,0,0,1.449-5.681,11.11,11.11,0,0,0-1.449-5.7,10.628,10.628,0,0,0-3.91-3.91,10.942,10.942,0,0,0-5.589-1.426,10.977,10.977,0,0,0-5.566,1.426,10.575,10.575,0,0,0-3.933,3.91A11.11,11.11,0,0,0,152.26-10.58Zm3.726,0a8.065,8.065,0,0,1,.943-3.933A6.908,6.908,0,0,1,159.5-17.2a7.134,7.134,0,0,1,3.7-.966,7.134,7.134,0,0,1,3.7.966,6.908,6.908,0,0,1,2.576,2.691,8.065,8.065,0,0,1,.943,3.933,7.933,7.933,0,0,1-.943,3.91,7.122,7.122,0,0,1-2.576,2.691,7.006,7.006,0,0,1-3.7.989,7.006,7.006,0,0,1-3.7-.989,7.122,7.122,0,0,1-2.576-2.691A7.933,7.933,0,0,1,155.986-10.58Zm26.91,2.3V-21.16h-3.68V-7.82a8.809,8.809,0,0,0,1.978,6.026A6.687,6.687,0,0,0,186.484.46a6.99,6.99,0,0,0,3.68-.943,7.462,7.462,0,0,0,2.622-2.829V0h3.68V-21.16h-3.68V-8.28a5.571,5.571,0,0,1-.667,2.76,4.693,4.693,0,0,1-1.886,1.863,5.8,5.8,0,0,1-2.829.667,4.122,4.122,0,0,1-3.358-1.38A5.946,5.946,0,0,1,182.9-8.28Zm20.47-27.6V0h3.68V-35.88Zm7.36,14.72v3.45h10.58v-3.45Zm3.45-7.36V0h3.68V-28.52Z" transform="translate(-3.68 35.88)" fill="#1c212c"/>
</svg>
