<svg xmlns="http://www.w3.org/2000/svg" xmlns:xlink="http://www.w3.org/1999/xlink" width="1920" height="1080" viewBox="0 0 1920 1080">
  <defs>
    <clipPath id="clip-Nightsky">
      <rect width="1920" height="1080"/>
    </clipPath>
  </defs>
  <g id="Nightsky" clip-path="url(#clip-Nightsky)">
    <rect width="1920" height="1080" fill="#1c212c"/>
    <circle id="Ellipse_1" data-name="Ellipse 1" cx="163" cy="163" r="163" transform="translate(797 152)" fill="#aebde6"/>
    <path id="Polygon_1" data-name="Polygon 1" d="M51.5,0,62.057,40.943,103,51.5,62.057,62.058,51.5,103,40.943,62.058,0,51.5,40.943,40.942Z" transform="translate(424 128)" fill="#fff"/>
    <path id="Polygon_2" data-name="Polygon 2" d="M61,0,73.5,48.495,122,61,73.5,73.5,61,122,48.495,73.5,0,61,48.495,48.495Z" transform="translate(1302 505)" fill="#fff"/>
    <path id="Polygon_3" data-name="Polygon 3" d="M29.5,0l6.047,23.453L59,29.5,35.547,35.547,29.5,59,23.453,35.547,0,29.5l23.453-6.047Z" transform="translate(1316 282)" fill="#fff"/>
    <path id="Polygon_7" data-name="Polygon 7" d="M29.5,0l6.047,23.453L59,29.5,35.547,35.547,29.5,59,23.453,35.547,0,29.5l23.453-6.047Z" transform="translate(1695 341)" fill="#fff"/>
    <path id="Polygon_8" data-name="Polygon 8" d="M21,0l4.3,16.7L42,21,25.3,25.3,21,42,16.7,25.3,0,21l16.7-4.3Z" transform="translate(254 463)" fill="#fff"/>
    <path id="Polygon_4" data-name="Polygon 4" d="M29.5,0l6.047,23.453L59,29.5,35.547,35.547,29.5,59,23.453,35.547,0,29.5l23.453-6.047Z" transform="translate(176 253)" fill="#fff"/>
    <path id="Polygon_5" data-name="Polygon 5" d="M29.5,0l6.047,23.453L59,29.5,35.547,35.547,29.5,59,23.453,35.547,0,29.5l23.453-6.047Z" transform="translate(551 412)" fill="#fff"/>
    <path id="Polygon_6" data-name="Polygon 6" d="M49,0,59.045,38.955,98,49,59.045,59.045,49,98,38.955,59.045,0,49,38.955,38.955Z" transform="translate(1524 152)" fill="#fff"/>
    <g id="Path_2" data-name="Path 2" transform="translate(350.389 577.101)" fill="#d9dce3">
      <path d="M 1052.265014648438 500.8987121582031 L 111.87060546875 500.8987121582031 L 157.0648193359375 384.1605224609375 L 265.851318359375 262.6916198730469 L 363.9755859375 206.4597625732422 L 364.3835754394531 206.2258758544922 L 364.6446533203125 205.8347015380859 L 454.6615295410156 70.95566558837891 L 604.3724975585938 194.5363464355469 L 605.6820678710938 195.6174011230469 L 606.9612426757812 194.5004730224609 L 679.86083984375 130.8443603515625 L 747.2467651367188 194.3862609863281 L 820.6098022460938 277.545166015625 L 820.9044189453125 277.8791809082031 L 821.3128662109375 278.0565795898438 L 922.5528564453125 322.0285034179688 L 1018.738952636719 384.3695678710938 L 1052.265014648438 500.8987121582031 Z" stroke="none"/>
      <path d="M 455.0960693359375 73.90756225585938 L 366.3082275390625 206.9450378417969 L 365.7860717773438 207.7274169921875 L 364.969970703125 208.1950378417969 L 267.1258544921875 264.2662353515625 L 158.7982788085938 385.2228393554688 L 114.7894287109375 498.898681640625 L 1049.608276367188 498.898681640625 L 1017.0234375 385.6410522460938 L 921.6043701171875 323.7969360351562 L 820.51611328125 279.8910522460938 L 819.69921875 279.5362854003906 L 819.1099853515625 278.868408203125 L 745.8074951171875 195.7782592773438 L 679.8092041015625 133.5446166992188 L 608.2767333984375 196.0070495605469 L 605.7184448242188 198.2407836914062 L 603.0993041992188 196.0787963867188 L 455.0960693359375 73.90756225585938 M 454.2272338867188 68.003662109375 L 605.6456909179688 192.9940490722656 L 679.9124755859375 128.14404296875 L 748.6854248046875 192.9940490722656 L 822.109619140625 276.22216796875 L 923.501708984375 320.2600402832031 L 1020.4541015625 383.097900390625 L 1054.921508789062 502.898681640625 L 108.9515380859375 502.898681640625 L 155.3316040039062 383.097900390625 L 264.5767211914062 261.1167907714844 L 362.9810791015625 204.7245483398438 L 454.2272338867188 68.003662109375 Z" stroke="none" fill="#fff"/>
    </g>
    <g id="Path_1" data-name="Path 1" transform="translate(0 555)" fill="#d9dce3">
      <path d="M 1021.09765625 523 L -27.62637519836426 523 L 40.2225456237793 379.3337097167969 L 192.0321044921875 276.2807922363281 L 192.4211730957031 276.0166625976562 L 192.6518402099609 275.6068115234375 L 282.8711547851562 115.2677307128906 L 425.8673095703125 25.02802848815918 L 579.1650390625 186.7068023681641 L 579.4091796875 186.9642639160156 L 579.72705078125 187.1221313476562 L 759.19091796875 276.2129211425781 L 846.480224609375 389.2272033691406 L 846.6398315429688 389.4338684082031 L 846.84716796875 389.5926513671875 L 1021.09765625 523 Z" stroke="none"/>
      <path d="M 425.5459594726562 27.5958251953125 L 284.3659057617188 116.689453125 L 194.394775390625 276.5874633789062 L 193.93359375 277.4071960449219 L 193.1553344726562 277.9354553222656 L 41.79791259765625 380.6813354492188 L -24.469970703125 521 L 1015.195434570312 521 L 845.6314697265625 391.1806640625 L 845.2166748046875 390.8632202148438 L 844.8973388671875 390.4497375488281 L 757.88916015625 277.7995300292969 L 578.8377075195312 188.9134521484375 L 578.2021484375 188.5978698730469 L 577.7137451171875 188.0827941894531 L 425.5459594726562 27.5958251953125 M 426.1887817382812 22.46026611328125 L 580.6163330078125 185.3306579589844 L 760.4922485351562 274.6260070800781 L 848.0630493164062 388.0046691894531 L 1027 525 L -30.78271484375 525 L 38.6474609375 377.9854736328125 L 190.9087524414062 274.6260070800781 L 281.3759765625 113.8464050292969 L 426.1887817382812 22.46026611328125 Z" stroke="none" fill="#fff"/>
    </g>
    <g id="Path_3" data-name="Path 3" transform="translate(999.776 481.54)" fill="#d9dce3">
      <path d="M 126.0494995117188 596.9915161132812 L 240.8854064941406 455.9783630371094 L 241.0054016113281 455.8309936523438 L 241.0955200195312 455.6635131835938 L 306.566162109375 334.0399475097656 L 401.16064453125 299.06787109375 L 401.5900268554688 298.9091186523438 L 401.9075317382812 298.5794982910156 L 487.0398864746094 210.2021331787109 L 487.1492614746094 210.088623046875 L 487.2395324707031 209.9593811035156 L 556.271728515625 111.0655746459961 L 653.4974365234375 25.21331787109375 L 763.5355834960938 136.9904022216797 L 808.3097534179688 241.171875 L 808.602294921875 241.8525085449219 L 809.2676391601562 242.1783752441406 L 905.9951171875 289.5460815429688 L 1079.347290039062 456.5593872070312 L 1114.6533203125 595.4642333984375 L 126.0494995117188 596.9915161132812 Z" stroke="none"/>
      <path d="M 653.4013061523438 27.9664306640625 L 557.7745361328125 112.4067687988281 L 488.8794555664062 211.1041259765625 L 488.698974609375 211.3626403808594 L 488.4803466796875 211.5896301269531 L 403.3480834960938 299.9670104980469 L 402.7129516601562 300.6263732910156 L 401.8541870117188 300.9437561035156 L 307.9689331054688 335.6535949707031 L 242.8565673828125 456.6115112304688 L 242.6763305664062 456.9463806152344 L 242.4360961914062 457.2413940429688 L 130.2628173828125 594.9849853515625 L 1112.082275390625 593.4682006835938 L 1077.549194335938 457.6043701171875 L 904.8333740234375 291.2040100097656 L 808.387939453125 243.9744873046875 L 807.057373046875 243.3228759765625 L 806.47216796875 241.9614868164062 L 761.846435546875 138.1254272460938 L 653.4013061523438 27.9664306640625 M 653.5936889648438 22.46026611328125 L 765.224609375 135.8552551269531 L 810.147216796875 240.3821411132812 L 907.156494140625 287.8877563476562 L 1081.145263671875 455.5144958496094 L 1117.224243164062 597.4602661132812 L 121.836181640625 598.9979858398438 L 239.33447265625 454.7155151367188 L 305.1634521484375 332.4262390136719 L 400.4672241210938 297.1919860839844 L 485.5994873046875 208.8146362304688 L 554.768310546875 109.7250061035156 L 653.5936889648438 22.46026611328125 Z" stroke="none" fill="#fff"/>
    </g>
    <path id="Path_4" data-name="Path 4" d="M171.752.731l-77.2,140L72.625,327.187-55.33,501.261" transform="translate(254.5 577.5)" fill="none" stroke="#fff" stroke-width="4"/>
    <path id="Path_5" data-name="Path 5" d="M174-9.315l-34.032,127L119.245,217.807l-14.951,130.4L26.557,462.4,9.036,563.305" transform="translate(1479.5 515.5)" fill="none" stroke="#fff" stroke-width="4"/>
    <path id="Path_6" data-name="Path 6" d="M0,0,50.095,142.056V234.15l9.935,76.433" transform="translate(804.5 645.5)" fill="none" stroke="#fff" stroke-width="4"/>
    <path id="Path_7" data-name="Path 7" d="M33.665,36.929,74.512,81.441l96.6,75.567,77.839,131.28" transform="translate(922.5 733.5)" fill="none" stroke="#fff" stroke-width="4"/>
    <line id="Line_1" data-name="Line 1" x2="35" y2="162" transform="translate(1030.5 706.5)" fill="none" stroke="#fff" stroke-width="4"/>
    <path id="Path_8" data-name="Path 8" d="M0,0,127.025,78.258l77.507,112.919L329,278" transform="translate(535.5 800.5)" fill="none" stroke="#fff" stroke-width="4"/>
    <path id="Path_9" data-name="Path 9" d="M109,0,38.465,97.123,4.64,218.044" transform="translate(1415.5 862.5)" fill="none" stroke="#fff" stroke-width="4"/>
    <path id="Path_10" data-name="Path 10" d="M0-1.673V60.305L12,155" transform="translate(888.5 828.5)" fill="none" stroke="#d9dce3" stroke-width="2"/>
  </g>
</svg>
